<svg width="500" height="250" viewBox="0 0 481 431" fill="none" xmlns="http://www.w3.org/2000/svg">
<path d="M183.585 265.218C184.613 273.046 187.199 281.738 193.199 288.027C188.908 285.458 184.624 281.454 180.639 276.501C175.639 270.286 171.138 262.611 167.71 254.491C164.282 246.37 161.936 237.822 161.234 229.864C160.531 221.901 161.477 214.571 164.587 208.847C165.909 206.416 168.145 205.119 170.777 204.788C173.42 204.456 176.453 205.103 179.279 206.572C184.934 209.51 189.607 215.647 188.654 223.416C188.117 227.793 186.976 231.724 185.884 235.45L185.827 235.643C184.76 239.284 183.742 242.752 183.443 246.199C183.431 246.328 183.418 246.478 183.402 246.649C183.162 249.292 182.479 256.801 183.585 265.218Z" fill="url(#paint0_diamond_111_2)" fill-opacity="0.9" stroke="#50D5FF"/>
<path d="M164.153 208.604C151.453 231.973 174.408 280.94 196.298 290.175C180.559 277.764 183.566 250.5 183.937 246.243C184.537 239.35 188.061 232.327 189.146 223.478C191.117 207.413 169.795 198.221 164.153 208.604Z" fill="url(#paint1_linear_111_2)"/>
<path d="M183.585 265.218C184.613 273.046 187.199 281.738 193.199 288.027C188.908 285.458 184.624 281.454 180.639 276.501C175.639 270.286 171.138 262.611 167.71 254.491C164.282 246.37 161.936 237.822 161.234 229.864C160.531 221.901 161.477 214.571 164.587 208.847C165.909 206.416 168.145 205.119 170.777 204.788C173.42 204.456 176.453 205.103 179.279 206.572C184.934 209.51 189.607 215.647 188.654 223.416C188.117 227.793 186.976 231.724 185.884 235.45L185.827 235.643C184.76 239.284 183.742 242.752 183.443 246.199C183.431 246.328 183.418 246.478 183.402 246.649C183.162 249.292 182.479 256.801 183.585 265.218Z" stroke="#6CAFC3" stroke-opacity="0.8"/>
<path d="M304.734 207.911C318.6 230.608 298.152 280.673 276.757 291.004C291.848 277.813 287.465 250.736 286.88 246.503C285.932 239.649 282.057 232.813 280.525 224.031C277.744 208.086 298.574 197.827 304.734 207.911Z" fill="url(#paint2_linear_111_2)"/>
<path d="M288.191 265.436C287.56 273.306 285.417 282.118 279.743 288.702C283.898 285.919 287.975 281.704 291.704 276.555C296.383 270.096 300.49 262.202 303.503 253.919C306.515 245.636 308.426 236.98 308.725 228.997C309.024 221.008 307.709 213.735 304.312 208.176C302.87 205.815 300.57 204.633 297.926 204.436C295.269 204.238 292.272 205.038 289.525 206.647C284.025 209.868 279.669 216.233 281.014 223.944C281.771 228.289 283.109 232.156 284.389 235.823L284.455 236.012C285.706 239.594 286.897 243.007 287.371 246.434C287.389 246.562 287.41 246.712 287.434 246.882C287.808 249.509 288.87 256.974 288.191 265.436Z" stroke="#6CAFC3" stroke-opacity="0.8"/>
<path d="M186.279 168.962C202.099 147.582 256.179 147.713 273.794 163.656C255.899 154.63 232.455 168.868 228.752 171.002C222.757 174.456 217.879 180.616 210.316 185.337C196.586 193.908 179.25 178.461 186.279 168.962Z" fill="url(#paint3_linear_111_2)"/>
<path d="M245.804 162.67C253.334 160.297 262.305 158.97 270.539 161.753C266.399 158.949 260.96 156.756 254.787 155.235C247.043 153.327 238.184 152.488 229.376 152.81C220.568 153.132 211.828 154.615 204.318 157.338C196.803 160.064 190.558 164.017 186.683 169.253C185.037 171.478 184.806 174.053 185.618 176.578C186.433 179.114 188.3 181.59 190.824 183.532C195.876 187.417 203.412 189.062 210.052 184.917C213.793 182.582 216.874 179.888 219.791 177.324L219.942 177.192C222.791 174.687 225.506 172.3 228.503 170.573C228.615 170.508 228.746 170.432 228.895 170.345C231.189 169.012 237.707 165.222 245.804 162.67Z" stroke="#6CAFC3" stroke-opacity="0.8"/>
<path d="M204.534 296.198C162.694 275.165 156.582 224.248 163.601 210.661C161.622 232.626 184.527 250.297 188.44 253.316L188.508 253.368C194.513 258.002 202.849 260.343 210.798 266.034C225.23 276.366 216.21 302.068 204.534 296.198Z" fill="url(#paint4_linear_111_2)"/>
<path d="M269.834 297.377C310.557 274.254 313.173 222.903 305.476 209.689C308.582 231.654 287.233 250.745 283.673 253.791C277.91 258.724 269.703 261.483 262.052 267.568C248.161 278.618 258.47 303.831 269.834 297.377Z" fill="url(#paint5_linear_111_2)"/>
<path d="M282.232 168.527C245.498 139.482 196.763 155.442 187.411 167.542C206.486 156.473 232.176 169.774 236.565 172.046L236.641 172.085C243.377 175.572 249.019 182.14 257.534 186.942C272.995 195.661 292.484 176.632 282.232 168.527Z" fill="url(#paint6_linear_111_2)"/>
<path d="M253.14 207.795L244.656 218.954L244.869 230.452L244.962 235.452L245.064 240.951C244.604 243.058 244.12 243.969 242.149 245.506C240.177 247.042 236.978 246.602 235.668 246.626C227.17 246.784 227.259 234.335 227.354 229.778L218.569 241.443C219.665 254.038 232.355 256.689 238.96 256.209C250.324 254.855 253.829 244.894 253.761 241.216L253.85 217.035L253.14 207.795Z" fill="url(#paint7_linear_111_2)" stroke="#115183" stroke-opacity="0.5"/>
<path fill-rule="evenodd" clip-rule="evenodd" d="M218 238.5V208C218.333 206.333 219.9 202.3 223.5 199.5C227 196.333 236.6 191.8 247 199C248.442 200.122 251.087 202.969 252.355 205.676L244.5 215.672V211C244.5 207 242.372 205.791 240 205C238.5 204.5 236.082 203.984 231 205C229.333 205.333 226.1 207 226.5 211V228L218 238.5Z" fill="white"/>
<defs>
<radialGradient id="paint0_diamond_111_2" cx="0" cy="0" r="1" gradientUnits="userSpaceOnUse" gradientTransform="translate(173.921 216) rotate(83.477) scale(52.2943 71.468)">
<stop stop-color="#8FACC7"/>
<stop offset="0.63" stop-color="#285DAD"/>
<stop offset="1" stop-color="#002D72"/>
</radialGradient>
<linearGradient id="paint1_linear_111_2" x1="155.894" y1="216.43" x2="213.098" y2="273.266" gradientUnits="userSpaceOnUse">
<stop stop-color="#D0E9FF"/>
<stop offset="0.51" stop-color="#006ACC"/>
<stop offset="0.925" stop-color="#092F68"/>
</linearGradient>
<linearGradient id="paint2_linear_111_2" x1="313.378" y1="215.309" x2="259.123" y2="274.967" gradientUnits="userSpaceOnUse">
<stop stop-color="#D0E9FF"/>
<stop offset="0.51" stop-color="#006ACC"/>
<stop offset="0.925" stop-color="#092F68"/>
</linearGradient>
<linearGradient id="paint3_linear_111_2" x1="189.886" y1="158.171" x2="265.562" y2="186.024" gradientUnits="userSpaceOnUse">
<stop stop-color="#D0E9FF"/>
<stop offset="0.51" stop-color="#006ACC"/>
<stop offset="0.925" stop-color="#092F68"/>
</linearGradient>
<linearGradient id="paint4_linear_111_2" x1="162.281" y1="254.9" x2="217.106" y2="252.695" gradientUnits="userSpaceOnUse">
<stop stop-color="white"/>
<stop offset="1" stop-color="#B8B8B8"/>
</linearGradient>
<linearGradient id="paint5_linear_111_2" x1="309.185" y1="253.901" x2="255.077" y2="254.464" gradientUnits="userSpaceOnUse">
<stop stop-color="white"/>
<stop offset="1" stop-color="#B8B8B8"/>
</linearGradient>
<linearGradient id="paint6_linear_111_2" x1="226.954" y1="147.665" x2="248.107" y2="198.293" gradientUnits="userSpaceOnUse">
<stop stop-color="white"/>
<stop offset="1" stop-color="#B8B8B8"/>
</linearGradient>
<linearGradient id="paint7_linear_111_2" x1="236.314" y1="215.258" x2="237.076" y2="256.251" gradientUnits="userSpaceOnUse">
<stop offset="0.365" stop-color="#5AB0FF"/>
<stop offset="0.975" stop-color="#072C65"/>
</linearGradient>
</defs>
</svg>
